<?xml version="1.0" encoding="UTF-8"?>
<svg id="uuid-1341c0ad-2175-4836-abe0-7a4a689a9b5c" data-name="uuid-798ef46e-465b-4b64-a1ee-2b52198119e5" xmlns="http://www.w3.org/2000/svg" viewBox="0 0 640.28 127.73">
  <g>
    <rect x="389.78" y="2.31" width="19.91" height="1.97"/>
    <rect x="389.78" y="26.56" width="19.91" height="1.97"/>
    <rect x="389.78" y="14.43" width="19.91" height="1.97"/>
  </g>
  <g>
    <path d="M304.04,2.92c-9.16.9-24.42,2.86-43.24,7.07V2.2h-33.59v16.9c-5.39,1.73-10.9,3.62-16.52,5.7V5.5c-13.21-3.67-27.35-5.5-41.66-5.5-36.34,0-51.21,11.2-51.21,38.17,0,14.74,5.83,23.35,14.03,28.75-12.79,9.45-25.18,20.28-36.74,32.69l-12.16-20.51c15.78-4.4,23.31-16.34,23.31-36.52,0-28.45-13.95-40.38-47.54-40.38H0v123.34h23.12c5.07,0,9.18-4.11,9.18-9.18v-33.21h18.35l23.31,42.4h36.53S166.4,39.33,304.3,4.42c.92-.23.69-1.59-.26-1.5M54.69,58.18h-22.39v-31.02h22.39c13.22,0,18.54,4.41,18.54,15.42s-5.32,15.6-18.54,15.6M162.44,47.13c-6.17-1.78-10.29-4.36-10.29-9.5,0-8.62,5.69-11.93,19.46-11.93,9.61,0,19.11,1.1,28.74,3.15-12.43,5.07-25.19,11.11-37.9,18.28"/>
    <path d="M210.94,65.78c-3.64-4.62-8.44-7.8-13.73-10.1-11.21,7.39-21.17,14.86-29.95,22.1,6.14,1.34,11.25,2.9,14.08,5.74,1.52,1.53,2.38,3.42,2.38,5.85,0,9.17-5.87,12.66-20.37,12.66-2.48,0-4.97-.07-7.45-.2-4.46-.24-8.93-.68-13.4-1.34-8.36,8.55-14.73,16.09-19.28,21.92,2.28.6,4.59,1.14,6.91,1.64,11.61,2.48,23.68,3.68,35.96,3.68,36.71,0,51.76-11.38,51.76-38.91,0-10.27-2.67-17.64-6.92-23.05"/>
    <path d="M260.8,99.84V22.11c-12.01,4.97-23.2,10.29-33.59,15.8v87.63h77.08c5.07,0,9.18-4.11,9.18-9.18v-16.51h-52.68.01Z"/>
    <path d="M142.5,100.5c-8.36,8.55-14.73,16.09-19.28,21.92,2.28.6,4.59,1.14,6.91,1.64,8.47-8.02,17.09-15.41,25.76-22.21-4.47-.23-8.93-.68-13.4-1.34" style="fill: #333;"/>
    <path d="M197.21,55.69c-11.21,7.39-21.17,14.86-29.95,22.1,6.14,1.34,11.25,2.9,14.07,5.74,10.02-6.61,19.95-12.5,29.61-17.74-3.64-4.62-8.44-7.8-13.73-10.1" style="fill: #333;"/>
    <path d="M260.8,22.11c-12.01,4.97-23.2,10.29-33.59,15.8v19.51c11.94-5.8,23.26-10.6,33.59-14.54,0,0,0-20.77,0-20.77Z" style="fill: #333;"/>
  </g>
  <path d="M628.58,125.38v-25.13l11.69-34.31h-9.02l-6.84,23.62h-.17l-6.84-23.62h-9.02l11.69,34.31v25.13h8.52,0ZM595.76,125.38v-51.42h9.85v-8.01h-28.22v8.01h9.85v51.42h8.52ZM572.7,65.94h-8.52v59.44h8.52v-59.44ZM549.85,65.94l-6.85,41.49h-.17l-6.76-41.49h-9.02l12.1,59.44h7.51l12.19-59.44h-9.01.01ZM521.73,65.94h-8.52v59.44h8.52v-59.44ZM498.72,125.38v-51.42h9.85v-8.01h-28.22v8.01h9.85v51.42h8.52ZM457.67,125.38l2.5-12.77h11.6l2.5,12.77h8.52l-13.27-59.44h-7.1l-13.27,59.44h8.52ZM461.68,104.59l4.17-21.54h.17l4.17,21.54h-8.52,0ZM445.56,125.38v-8.52h-16.86v-17.45h14.69v-8.01h-14.69v-17.45h16.86v-8.01h-25.38v59.44s25.38,0,25.38,0ZM392.98,125.38v-25.38h5.09l7.93,25.38h9.02l-9.18-27.13c2.73-1.5,4.63-3.48,5.72-5.93s1.63-5.43,1.63-8.93c0-11.63-5.01-17.45-15.03-17.45h-13.69v59.44s8.51,0,8.51,0ZM397.4,73.95c2.95,0,4.95.78,6.01,2.34.5.84.83,1.82,1,2.96s.25,2.46.25,3.97-.08,2.83-.25,3.96c-.17,1.14-.47,2.1-.92,2.88-.5.78-1.2,1.38-2.09,1.79-.89.42-2.09.63-3.59.63h-4.84v-18.53h4.43ZM369.92,108.43v2.92c0,1.17-.17,2.14-.5,2.92s-.75,1.39-1.25,1.84c-.56.45-1.15.77-1.79.96-.64.2-1.24.29-1.79.29-1.95,0-3.3-.58-4.05-1.75s-1.13-2.62-1.13-4.34v-30.39c0-2,.35-3.66,1.04-4.97s2.1-1.96,4.21-1.96c1.61,0,2.89.61,3.84,1.84.94,1.23,1.42,2.67,1.42,4.34v2.84h8.52v-3.34c0-2.06-.35-3.97-1.04-5.72-.7-1.75-1.66-3.27-2.88-4.55-2.5-2.62-5.76-3.92-9.77-3.92-2.06,0-3.94.35-5.64,1.04s-3.16,1.66-4.38,2.88c-1.23,1.22-2.17,2.67-2.84,4.34-.67,1.67-1,3.48-1,5.43v32.73c0,2.73.43,4.97,1.29,6.72.86,1.75,1.96,3.19,3.3,4.3s2.84,1.89,4.51,2.34c1.67.44,3.31.67,4.93.67,1.89,0,3.66-.38,5.3-1.13,1.64-.75,3.07-1.76,4.3-3.05,1.22-1.28,2.18-2.74,2.88-4.38.69-1.64,1.04-3.38,1.04-5.22v-3.67h-8.52,0Z" style="fill: #1d1d1b;"/>
  <line x1="350.89" y1="47.09" x2="640.27" y2="47.09" style="fill: none; stroke: #1d1d1b; stroke-width: .49px;"/>
  <path d="M636.77,2.34c-.22,0-.37.15-.37.37v10.91l.33,8.93h-.27l-11.71-19.92c-.11-.19-.3-.3-.52-.3h-3.59c-.22,0-.37.15-.37.37v25.43c0,.22.15.37.37.37h3.13c.22,0,.37-.15.37-.37v-12.17l-.33-7.68h.28l4.42,7.68,7.29,12.24c.11.19.3.3.52.3h3.59c.22,0,.37-.15.37-.37V2.71c0-.22-.15-.37-.37-.37h-3.14ZM578.9,13.4v-7.67h12.06c.22,0,.37-.15.37-.37v-2.65c0-.22-.15-.37-.37-.37h-15.56c-.22,0-.37.15-.37.37v25.43c0,.22.15.37.37.37h15.56c.22,0,.37-.15.37-.37v-2.65c0-.22-.15-.37-.37-.37h-12.06v-8.31h11.13c.22,0,.37-.15.37-.37v-2.65c0-.22-.15-.37-.37-.37h-11.13v-.02ZM537.41,1.85c-5.83,0-11.37,4.02-11.37,11.7v3.75c-.04,7.68,5.4,11.69,11.23,11.69h.47c2.74.02,5.65-1.1,6.85-1.92.24-.17.35-.41.35-.74v-10.57c0-.22-.15-.37-.37-.37h-3.06c-.22,0-.37.15-.37.37v9.07c-.91.43-2.1.77-3.39.77h-.23c-4.35,0-7.52-2.93-7.52-8.4v-3.56c0-5.47,3.65-8.4,8-8.4h.23c2.27,0,3.57.53,5.64,1.46.24.09.43-.06.43-.26v-2.56c0-.35-.15-.5-.37-.61-1.13-.64-3.54-1.43-6.04-1.42h-.48ZM479.35,2.34c-.15,0-.25.1-.25.25v1.23c0,.15.1.25.25.25h8.59v24.19c0,.15.1.25.25.25h1.42c.15,0,.25-.1.25-.25V4.06h8.59c.15,0,.25-.1.25-.25v-1.23c0-.15-.1-.25-.25-.25h-19.1ZM448.48,2.34c-.17,0-.31.09-.4.23l-5.33,8.24-1.86,3.12h-.15l-1.87-3.12-5.33-8.24c-.09-.14-.22-.23-.4-.23h-1.58c-.16,0-.28.15-.19.3l8.04,12.53-8.31,13.04c-.09.15.04.3.19.3h1.59c.17,0,.31-.09.4-.23l5.61-8.73,1.84-3.12h.15l1.83,3.12,5.61,8.73c.09.14.22.23.4.23h1.59c.16,0,.29-.15.19-.3l-8.31-13.04,8.04-12.53c.09-.15-.03-.3-.19-.3h-1.58.02ZM368.15,2.34c-.15,0-.25.1-.25.25v11.41l.11,11.55h-.12l-14.67-23.01c-.09-.14-.22-.2-.37-.2h-1.72c-.15,0-.25.1-.25.25v25.67c0,.15.1.25.25.25h1.42c.15,0,.25-.1.25-.25v-13.47l-.11-9.49h.12l14.67,23.01c.09.14.22.2.37.2h1.72c.15,0,.25-.1.25-.25V2.58c0-.15-.1-.25-.25-.25h-1.42Z" style="fill: #1d1d1b;"/>
</svg>